<?xml version="1.0" encoding="UTF-8" standalone="no"?>
<!-- Generator: Adobe Illustrator 19.1.0, SVG Export Plug-In . SVG Version: 6.00 Build 0)  -->
<svg id="Layer_1" xmlns:rdf="http://www.w3.org/1999/02/22-rdf-syntax-ns#" xmlns="http://www.w3.org/2000/svg" xml:space="preserve" viewBox="-354 208 329.99999 281.71829" height="281.72" width="330" version="1.1" y="0px" x="0px" xmlns:cc="http://creativecommons.org/ns#" xmlns:dc="http://purl.org/dc/elements/1.1/"><title id="title4145">Phone Icon 1</title><metadata id="metadata13"><rdf:RDF><cc:Work rdf:about=""><dc:format>image/svg+xml</dc:format><dc:type rdf:resource="http://purl.org/dc/dcmitype/StillImage"/><dc:title>Phone Icon 1</dc:title><cc:license rdf:resource="http://creativecommons.org/publicdomain/zero/1.0/"/><dc:creator><cc:Agent><dc:title/></cc:Agent></dc:creator><dc:publisher><cc:Agent><dc:title>Openclipart.org</dc:title></cc:Agent></dc:publisher><dc:identifier>https://openclipart.org/</dc:identifier><dc:source/><dc:subject><rdf:Bag><rdf:li>phone</rdf:li><rdf:li>telephone</rdf:li><rdf:li/></rdf:Bag></dc:subject><dc:description>phone pictogram/icon</dc:description><dc:contributor><cc:Agent><dc:title>https://openclipart.org/detail/267523/noun</dc:title></cc:Agent></dc:contributor></cc:Work><cc:License rdf:about="http://creativecommons.org/publicdomain/zero/1.0/"><cc:permits rdf:resource="http://creativecommons.org/ns#Reproduction"/><cc:permits rdf:resource="http://creativecommons.org/ns#Distribution"/><cc:permits rdf:resource="http://creativecommons.org/ns#DerivativeWorks"/></cc:License></rdf:RDF></metadata>
<style id="style3" type="text/css">
	.st0{fill:#FFFFFF;}
</style>
<g id="g4141" style="fill:#000000" transform="matrix(1.9438 0 0 1.9438 345.48 -214.35)"><ellipse id="ellipse5" style="fill:#000000" rx="15.6" ry="13.1" cy="322.1" cx="-264.7" class="st0"/><path id="path7" class="st0" style="fill:#000000" d="m-201.1 255.3c0.1-0.7 0.2-0.8 0.2-1.6 0-4.3-2.4-7.3-5.4-7.3h-1.1v-12.1c0-1.1-0.7-1.7-1.4-2.5-0.6-0.7-1.7-0.7-2.7-0.7h-16.4c-1.7-3.1-5.1-6.1-9.1-6.1h-55.4c-4 0-7.4 3.1-9.1 6.1h-16.4c-1.5 0-2.7 0.7-3.1 2.2-4.7-0.4-20.4-1.1-27.6 9.4-4.3 6.3-4.7 15.2-1.1 26.6 3.3 10.4 13.8 17.8 24 25.1 11.7 8.3 22.8 16.2 23.6 27.7-1.4 3.3-2.1 6.6-2.1 9.9 0 15.8 17.7 22.5 39.5 22.5s39.5-6.7 39.5-22.5c0-14-14-30.5-32.5-34v-13.3l0.1 0.4c2.4-1.2 4.7-4.9 6.5-4.9h15.5c0.9 0 1.6-0.5 1.6-1.5s-0.7-1.5-1.6-1.5h-16.2c-0.5 0-0.9-0.5-1.2 0-0.1 0.1-0.3-0.1-0.4 0-1.2 1.7-2.7 2.8-4.2 3.8 0.1-0.3 0.1-0.6 0.1-0.9 0-1.4-1.2-2.7-3-3.5 0.2-1.8 0.6-5.7-0.1-5.7-1.1 0-0.9-0.5-0.9-1.1 1.8-1 3.2-4.8 3.7-4.8h12c0.3 0 0.7-0.5 1-0.6 9.6-1.9 15.8-13.2 14.3-23.8 1.1-0.7 2.1-0.1 2.7-3.2h12.5v9.2h-2.3c-3 0-5.4 2.9-5.4 7.3 0 0.8 0.1 1.2 0.2 1.9-1.9 0.4-3.2 1.4-3.2 3 0 2 2 3.2 4.4 3.2h19.4c2.4 0 4.4-1.4 4.4-3.3-0.1-1.8-1.5-3-3.3-3.4zm-98.6 62.8c-2.7-11-13.8-18.7-24.4-26.3-9.8-7-20.1-14.2-23-23.5-3.2-10.3-3.2-18.3 0.5-23.7 6.3-9.2 19.9-8.8 25.2-8.5v13.1c0 0.1 0.3 0.4 0.3 0.4h-2.1c-3.1 0-5.5 2.4-5.5 5.6 0 0.3 0 0.6 0.1 0.9-1.9 0.3-3.2 1.3-3.2 2.4 0 0.1 0.1 0.2 0.1 0.3s-0.1 0.2-0.1 0.3c0 1.2 1.4 2.1 3.2 2.5-0.1 0.3-0.1 0.5-0.1 0.9 0 3.2 2.5 5.6 5.5 5.6h1.9v1.7c0 8.7 6.2 13.7 11.5 15.1v0.2c-0.4 1.5 0.4 3 1.6 3.5 0.5 0.1 0.9 0.1 1.3 0l-0.1 0.5c-0.5 2 0.5 4.1 2.2 4.6 1.7 0.6 3.5-0.6 4-2.6l5-19.9c0.5-2-0.5-4.1-2.2-4.6-1.7-0.6-3.5 0.6-4 2.6v0.1c-0.3-0.4-0.6-0.7-1.1-0.9-1.2-0.4-2.5 0.4-2.9 1.7-0.4-0.1-0.7-0.2-1.2-0.2-1.7-0.1-2.9-0.8-3.9-1.6 2.9-0.2 5.1-2.7 5.1-5.7 0-0.3 0-0.7-0.1-1 1.9-0.3 3.2-1.3 3.2-2.5 0-0.1-0.1-0.2-0.1-0.3s0.1-0.2 0.1-0.3c0-1.2-1.4-2.1-3.2-2.5 0.1-0.3 0.1-0.5 0.1-0.9 0-3.2-2.5-5.6-5.5-5.6h-2.6l0.7-0.4v-11.8h11.9c0.7 3.1 1.6 2.2 2.7 3-1.5 10.6 4.7 21.9 14.3 23.8 0.3 0.1 0.6 0.8 1 0.8h12c0.5 0 1.9 3.8 3.7 4.8 0.1 0.6 0.3 1.3-0.9 1.3-0.7 0-0.3 3.7-0.1 5.5-1.8 0.8-3 2-3 3.4 0 0.3 0.1 0.5 0.1 0.7-1.5-1-2.9-2.3-4.1-3.9-0.2-0.3-0.5 0.2-0.8 0s-0.6 0.4-0.9 0.4h-16.2c-0.9 0-1.6 0.5-1.6 1.5s0.7 1.5 1.6 1.5h15.7c1.8 0 4.3 3.7 6.7 4.9 0 0 0.4-0.4 0.4-0.3v13.3c-13.4 2.4-23.3 10.6-28.8 20.1zm58.1 4c0 10.7-10.3 19.4-23 19.4s-23-8.7-23-19.4 10.3-19.4 23-19.4c12.6 0 23 8.7 23 19.4zm-5.1-63l-0.1-0.3h-11.2c-0.9-3.1-3.5-5.7-6.7-5.7s-5.8 2.6-6.7 5.7h-11.2l-0.1 0.3c-7.8-0.8-13-8.3-12.2-16.6 0.8 0.2 1.6 1 2.5 1h55.4c0.9 0 1.7-0.8 2.5-1 0.8 8.3-4.4 15.8-12.2 16.6z"/></g>
</svg>
